<mxfile host="app.diagrams.net" modified="2024-07-09T22:55:40.810Z" agent="Mozilla/5.0 (Windows NT 10.0; Win64; x64) AppleWebKit/537.36 (KHTML, like Gecko) Chrome/126.0.0.0 Safari/537.36" etag="U2PRzFtNyNBLfhH1B-Zq" version="24.6.4" type="device">
  <diagram name="PÃ¡gina-1" id="m3YiKb1pOxPoElPiLpKl">
    <mxGraphModel dx="3214" dy="362" grid="1" gridSize="10" guides="1" tooltips="1" connect="1" arrows="1" fold="1" page="1" pageScale="1" pageWidth="827" pageHeight="1169" math="0" shadow="0">
      <root>
        <mxCell id="0" />
        <mxCell id="1" parent="0" />
        <mxCell id="AN9zDlKNwb55fskblCpH-6" value="Exportable" style="swimlane;fontStyle=1;align=center;verticalAlign=top;childLayout=stackLayout;horizontal=1;startSize=26;horizontalStack=0;resizeParent=1;resizeParentMax=0;resizeLast=0;collapsible=1;marginBottom=0;whiteSpace=wrap;html=1;" parent="1" vertex="1">
          <mxGeometry x="-1505" y="280" width="210" height="120" as="geometry" />
        </mxCell>
        <mxCell id="AN9zDlKNwb55fskblCpH-7" value="&lt;div&gt;- estrategia: EstrategiaDeExportacion&lt;br&gt;&lt;/div&gt;&lt;div&gt;- documento: Documento&lt;br&gt;&lt;/div&gt;" style="text;strokeColor=none;fillColor=none;align=left;verticalAlign=top;spacingLeft=4;spacingRight=4;overflow=hidden;rotatable=0;points=[[0,0.5],[1,0.5]];portConstraint=eastwest;whiteSpace=wrap;html=1;" parent="AN9zDlKNwb55fskblCpH-6" vertex="1">
          <mxGeometry y="26" width="210" height="34" as="geometry" />
        </mxCell>
        <mxCell id="AN9zDlKNwb55fskblCpH-8" value="" style="line;strokeWidth=1;fillColor=none;align=left;verticalAlign=middle;spacingTop=-1;spacingLeft=3;spacingRight=3;rotatable=0;labelPosition=right;points=[];portConstraint=eastwest;strokeColor=inherit;" parent="AN9zDlKNwb55fskblCpH-6" vertex="1">
          <mxGeometry y="60" width="210" height="18" as="geometry" />
        </mxCell>
        <mxCell id="AN9zDlKNwb55fskblCpH-9" value="&lt;div&gt;+ actuar() : String&lt;/div&gt;&lt;div&gt;+ datos() : Map&amp;lt;String, List&amp;lt;String&amp;gt;&amp;gt;&lt;br&gt;&lt;/div&gt;" style="text;strokeColor=none;fillColor=none;align=left;verticalAlign=top;spacingLeft=4;spacingRight=4;overflow=hidden;rotatable=0;points=[[0,0.5],[1,0.5]];portConstraint=eastwest;whiteSpace=wrap;html=1;" parent="AN9zDlKNwb55fskblCpH-6" vertex="1">
          <mxGeometry y="78" width="210" height="42" as="geometry" />
        </mxCell>
        <mxCell id="AN9zDlKNwb55fskblCpH-10" value="ExportarAExcel" style="swimlane;fontStyle=1;align=center;verticalAlign=top;childLayout=stackLayout;horizontal=1;startSize=26;horizontalStack=0;resizeParent=1;resizeParentMax=0;resizeLast=0;collapsible=1;marginBottom=0;whiteSpace=wrap;html=1;" parent="1" vertex="1">
          <mxGeometry x="-1660" y="610" width="240" height="238" as="geometry" />
        </mxCell>
        <mxCell id="AN9zDlKNwb55fskblCpH-11" value="&lt;div&gt;- workbook: XSSFWorkbook&lt;/div&gt;&lt;div&gt;- nombreDeArchivo: String&lt;br&gt;&lt;/div&gt;" style="text;strokeColor=none;fillColor=none;align=left;verticalAlign=top;spacingLeft=4;spacingRight=4;overflow=hidden;rotatable=0;points=[[0,0.5],[1,0.5]];portConstraint=eastwest;whiteSpace=wrap;html=1;" parent="AN9zDlKNwb55fskblCpH-10" vertex="1">
          <mxGeometry y="26" width="240" height="34" as="geometry" />
        </mxCell>
        <mxCell id="AN9zDlKNwb55fskblCpH-12" value="" style="line;strokeWidth=1;fillColor=none;align=left;verticalAlign=middle;spacingTop=-1;spacingLeft=3;spacingRight=3;rotatable=0;labelPosition=right;points=[];portConstraint=eastwest;strokeColor=inherit;" parent="AN9zDlKNwb55fskblCpH-10" vertex="1">
          <mxGeometry y="60" width="240" height="8" as="geometry" />
        </mxCell>
        <mxCell id="AN9zDlKNwb55fskblCpH-13" value="&lt;div&gt;+ exportar(Exportable exportable) : String&lt;br&gt;&lt;/div&gt;&lt;div&gt;- rutaCompletaDelArchivo() : String&lt;/div&gt;&lt;div&gt;- guardar() : void&lt;/div&gt;&lt;div&gt;- crearLibroDeTrabajo() : void&lt;/div&gt;&lt;div&gt;- crearHoja(String nombre) : XSSFSheet&lt;/div&gt;&lt;div&gt;- agregarDatos(XSSFSheet hoja, Map&amp;lt;String, List&amp;lt;String&amp;gt;&amp;gt; datos) : void&lt;/div&gt;&lt;div&gt;- crearFila(XSSFSheet hoja, int numeroDeFila) : Row&lt;/div&gt;&lt;div&gt;- agregarColumna(List&amp;lt;String&amp;gt; valores, Row fila, XSSFSheet hoja) : void&lt;br&gt;&lt;/div&gt;" style="text;strokeColor=none;fillColor=none;align=left;verticalAlign=top;spacingLeft=4;spacingRight=4;overflow=hidden;rotatable=0;points=[[0,0.5],[1,0.5]];portConstraint=eastwest;whiteSpace=wrap;html=1;" parent="AN9zDlKNwb55fskblCpH-10" vertex="1">
          <mxGeometry y="68" width="240" height="170" as="geometry" />
        </mxCell>
        <mxCell id="AN9zDlKNwb55fskblCpH-14" value="&amp;lt;&amp;lt;Interface&amp;gt;&amp;gt;&lt;br&gt;&lt;div&gt;AdapterExportadorPDF&lt;/div&gt;" style="swimlane;fontStyle=1;align=center;verticalAlign=top;childLayout=stackLayout;horizontal=1;startSize=40;horizontalStack=0;resizeParent=1;resizeParentMax=0;resizeLast=0;collapsible=1;marginBottom=0;whiteSpace=wrap;html=1;" parent="1" vertex="1">
          <mxGeometry x="-1365" y="740" width="190" height="66" as="geometry" />
        </mxCell>
        <mxCell id="AN9zDlKNwb55fskblCpH-17" value="+ exportar(Exportable exportable)" style="text;strokeColor=none;fillColor=none;align=left;verticalAlign=top;spacingLeft=4;spacingRight=4;overflow=hidden;rotatable=0;points=[[0,0.5],[1,0.5]];portConstraint=eastwest;whiteSpace=wrap;html=1;" parent="AN9zDlKNwb55fskblCpH-14" vertex="1">
          <mxGeometry y="40" width="190" height="26" as="geometry" />
        </mxCell>
        <mxCell id="AN9zDlKNwb55fskblCpH-18" value="AdapterApachePDFBox" style="swimlane;fontStyle=1;align=center;verticalAlign=top;childLayout=stackLayout;horizontal=1;startSize=26;horizontalStack=0;resizeParent=1;resizeParentMax=0;resizeLast=0;collapsible=1;marginBottom=0;whiteSpace=wrap;html=1;" parent="1" vertex="1">
          <mxGeometry x="-1400" y="848" width="260" height="140" as="geometry" />
        </mxCell>
        <mxCell id="AN9zDlKNwb55fskblCpH-19" value="- nombreDeArchivo: String" style="text;strokeColor=none;fillColor=none;align=left;verticalAlign=top;spacingLeft=4;spacingRight=4;overflow=hidden;rotatable=0;points=[[0,0.5],[1,0.5]];portConstraint=eastwest;whiteSpace=wrap;html=1;" parent="AN9zDlKNwb55fskblCpH-18" vertex="1">
          <mxGeometry y="26" width="260" height="26" as="geometry" />
        </mxCell>
        <mxCell id="AN9zDlKNwb55fskblCpH-20" value="" style="line;strokeWidth=1;fillColor=none;align=left;verticalAlign=middle;spacingTop=-1;spacingLeft=3;spacingRight=3;rotatable=0;labelPosition=right;points=[];portConstraint=eastwest;strokeColor=inherit;" parent="AN9zDlKNwb55fskblCpH-18" vertex="1">
          <mxGeometry y="52" width="260" height="8" as="geometry" />
        </mxCell>
        <mxCell id="AN9zDlKNwb55fskblCpH-21" value="&lt;div&gt;+ exportar(Exportable exportable) : String&lt;/div&gt;&lt;div&gt;- rutaCompletaDelArchivo() : String&lt;/div&gt;&lt;div&gt;- agregarDatos(PDPageContentStream pagina, Map&amp;lt;String, List&amp;lt;String&amp;gt;&amp;gt; datos) : void &lt;br&gt;&lt;/div&gt;" style="text;strokeColor=none;fillColor=none;align=left;verticalAlign=top;spacingLeft=4;spacingRight=4;overflow=hidden;rotatable=0;points=[[0,0.5],[1,0.5]];portConstraint=eastwest;whiteSpace=wrap;html=1;" parent="AN9zDlKNwb55fskblCpH-18" vertex="1">
          <mxGeometry y="60" width="260" height="80" as="geometry" />
        </mxCell>
        <mxCell id="AN9zDlKNwb55fskblCpH-22" value="ExportarPDF" style="swimlane;fontStyle=1;align=center;verticalAlign=top;childLayout=stackLayout;horizontal=1;startSize=26;horizontalStack=0;resizeParent=1;resizeParentMax=0;resizeLast=0;collapsible=1;marginBottom=0;whiteSpace=wrap;html=1;" parent="1" vertex="1">
          <mxGeometry x="-1395" y="610" width="250" height="86" as="geometry" />
        </mxCell>
        <mxCell id="AN9zDlKNwb55fskblCpH-23" value="- adapter: IPDF" style="text;strokeColor=none;fillColor=none;align=left;verticalAlign=top;spacingLeft=4;spacingRight=4;overflow=hidden;rotatable=0;points=[[0,0.5],[1,0.5]];portConstraint=eastwest;whiteSpace=wrap;html=1;" parent="AN9zDlKNwb55fskblCpH-22" vertex="1">
          <mxGeometry y="26" width="250" height="26" as="geometry" />
        </mxCell>
        <mxCell id="AN9zDlKNwb55fskblCpH-24" value="" style="line;strokeWidth=1;fillColor=none;align=left;verticalAlign=middle;spacingTop=-1;spacingLeft=3;spacingRight=3;rotatable=0;labelPosition=right;points=[];portConstraint=eastwest;strokeColor=inherit;" parent="AN9zDlKNwb55fskblCpH-22" vertex="1">
          <mxGeometry y="52" width="250" height="8" as="geometry" />
        </mxCell>
        <mxCell id="AN9zDlKNwb55fskblCpH-25" value="+ exportar(Exportable exportable) : String" style="text;strokeColor=none;fillColor=none;align=left;verticalAlign=top;spacingLeft=4;spacingRight=4;overflow=hidden;rotatable=0;points=[[0,0.5],[1,0.5]];portConstraint=eastwest;whiteSpace=wrap;html=1;" parent="AN9zDlKNwb55fskblCpH-22" vertex="1">
          <mxGeometry y="60" width="250" height="26" as="geometry" />
        </mxCell>
        <mxCell id="AN9zDlKNwb55fskblCpH-27" value="" style="endArrow=open;endFill=1;endSize=12;html=1;rounded=0;" parent="1" source="AN9zDlKNwb55fskblCpH-28" target="AN9zDlKNwb55fskblCpH-6" edge="1">
          <mxGeometry width="160" relative="1" as="geometry">
            <mxPoint x="-1395" y="450" as="sourcePoint" />
            <mxPoint x="-1395" y="330" as="targetPoint" />
          </mxGeometry>
        </mxCell>
        <mxCell id="AN9zDlKNwb55fskblCpH-28" value="&lt;div&gt;&amp;lt;&amp;lt;interface&amp;gt;&amp;gt;&lt;/div&gt;&lt;div&gt;EstrategiaDeExportacion&lt;br&gt;&lt;/div&gt;" style="swimlane;fontStyle=1;align=center;verticalAlign=top;childLayout=stackLayout;horizontal=1;startSize=40;horizontalStack=0;resizeParent=1;resizeParentMax=0;resizeLast=0;collapsible=1;marginBottom=0;whiteSpace=wrap;html=1;" parent="1" vertex="1">
          <mxGeometry x="-1520" y="440" width="240" height="66" as="geometry" />
        </mxCell>
        <mxCell id="AN9zDlKNwb55fskblCpH-31" value="+ exportar(Exportable exportable) : String" style="text;strokeColor=none;fillColor=none;align=left;verticalAlign=top;spacingLeft=4;spacingRight=4;overflow=hidden;rotatable=0;points=[[0,0.5],[1,0.5]];portConstraint=eastwest;whiteSpace=wrap;html=1;" parent="AN9zDlKNwb55fskblCpH-28" vertex="1">
          <mxGeometry y="40" width="240" height="26" as="geometry" />
        </mxCell>
        <mxCell id="AN9zDlKNwb55fskblCpH-37" value="" style="endArrow=open;endFill=1;endSize=12;html=1;rounded=0;entryX=0.5;entryY=0;entryDx=0;entryDy=0;" parent="1" source="AN9zDlKNwb55fskblCpH-25" target="AN9zDlKNwb55fskblCpH-14" edge="1">
          <mxGeometry width="160" relative="1" as="geometry">
            <mxPoint x="-1180.5" y="647" as="sourcePoint" />
            <mxPoint x="-1179.5" y="596" as="targetPoint" />
          </mxGeometry>
        </mxCell>
        <mxCell id="AN9zDlKNwb55fskblCpH-44" value="" style="endArrow=block;dashed=1;endFill=0;endSize=12;html=1;rounded=0;" parent="1" source="AN9zDlKNwb55fskblCpH-18" target="AN9zDlKNwb55fskblCpH-14" edge="1">
          <mxGeometry width="160" relative="1" as="geometry">
            <mxPoint x="-1290" y="800" as="sourcePoint" />
            <mxPoint x="-1130" y="800" as="targetPoint" />
          </mxGeometry>
        </mxCell>
        <mxCell id="AN9zDlKNwb55fskblCpH-45" value="" style="endArrow=block;dashed=1;endFill=0;endSize=12;html=1;rounded=0;" parent="1" source="AN9zDlKNwb55fskblCpH-10" target="AN9zDlKNwb55fskblCpH-28" edge="1">
          <mxGeometry width="160" relative="1" as="geometry">
            <mxPoint x="-1440" y="600" as="sourcePoint" />
            <mxPoint x="-1280" y="600" as="targetPoint" />
            <Array as="points">
              <mxPoint x="-1540" y="580" />
              <mxPoint x="-1400" y="580" />
            </Array>
          </mxGeometry>
        </mxCell>
        <mxCell id="AN9zDlKNwb55fskblCpH-47" value="" style="endArrow=block;dashed=1;endFill=0;endSize=12;html=1;rounded=0;" parent="1" source="AN9zDlKNwb55fskblCpH-22" target="AN9zDlKNwb55fskblCpH-28" edge="1">
          <mxGeometry width="160" relative="1" as="geometry">
            <mxPoint x="-1440" y="600" as="sourcePoint" />
            <mxPoint x="-1280" y="600" as="targetPoint" />
            <Array as="points">
              <mxPoint x="-1270" y="580" />
              <mxPoint x="-1400" y="580" />
            </Array>
          </mxGeometry>
        </mxCell>
        <mxCell id="AN9zDlKNwb55fskblCpH-48" value="&lt;font style=&quot;font-size: 36px;&quot;&gt;V1&lt;/font&gt;" style="text;html=1;align=center;verticalAlign=middle;resizable=0;points=[];autosize=1;strokeColor=none;fillColor=none;" parent="1" vertex="1">
          <mxGeometry x="-1435" y="60" width="70" height="60" as="geometry" />
        </mxCell>
        <mxCell id="f1k30kbrnZfmxj0MRdFR-2" value="Documento" style="swimlane;fontStyle=1;align=center;verticalAlign=top;childLayout=stackLayout;horizontal=1;startSize=26;horizontalStack=0;resizeParent=1;resizeParentMax=0;resizeLast=0;collapsible=1;marginBottom=0;whiteSpace=wrap;html=1;" parent="1" vertex="1">
          <mxGeometry x="-1520" y="120" width="240" height="120" as="geometry" />
        </mxCell>
        <mxCell id="f1k30kbrnZfmxj0MRdFR-3" value="- datos: HashMap&amp;lt;String, List&amp;lt;String&amp;gt;&amp;gt;" style="text;strokeColor=none;fillColor=none;align=left;verticalAlign=top;spacingLeft=4;spacingRight=4;overflow=hidden;rotatable=0;points=[[0,0.5],[1,0.5]];portConstraint=eastwest;whiteSpace=wrap;html=1;" parent="f1k30kbrnZfmxj0MRdFR-2" vertex="1">
          <mxGeometry y="26" width="240" height="26" as="geometry" />
        </mxCell>
        <mxCell id="f1k30kbrnZfmxj0MRdFR-4" value="" style="line;strokeWidth=1;fillColor=none;align=left;verticalAlign=middle;spacingTop=-1;spacingLeft=3;spacingRight=3;rotatable=0;labelPosition=right;points=[];portConstraint=eastwest;strokeColor=inherit;" parent="f1k30kbrnZfmxj0MRdFR-2" vertex="1">
          <mxGeometry y="52" width="240" height="8" as="geometry" />
        </mxCell>
        <mxCell id="f1k30kbrnZfmxj0MRdFR-5" value="+ getDatos() : Map&amp;lt;String, List&amp;lt;String&amp;gt;&amp;gt;&lt;div&gt;+ agregarDatos(String numFila, String nombre, String apellido, String edad) : void&lt;/div&gt;" style="text;strokeColor=none;fillColor=none;align=left;verticalAlign=top;spacingLeft=4;spacingRight=4;overflow=hidden;rotatable=0;points=[[0,0.5],[1,0.5]];portConstraint=eastwest;whiteSpace=wrap;html=1;" parent="f1k30kbrnZfmxj0MRdFR-2" vertex="1">
          <mxGeometry y="60" width="240" height="60" as="geometry" />
        </mxCell>
        <mxCell id="f1k30kbrnZfmxj0MRdFR-7" value="" style="endArrow=open;endFill=1;endSize=12;html=1;rounded=0;" parent="1" source="f1k30kbrnZfmxj0MRdFR-2" target="AN9zDlKNwb55fskblCpH-6" edge="1">
          <mxGeometry width="160" relative="1" as="geometry">
            <mxPoint x="-1420" y="330" as="sourcePoint" />
            <mxPoint x="-1260" y="330" as="targetPoint" />
          </mxGeometry>
        </mxCell>
      </root>
    </mxGraphModel>
  </diagram>
</mxfile>
